# xmcd
#
# Track frame offsets: 
#        183
#        12758
#        28483
#        41808
#        50470
#        63145
#        73770
#        88608
#        101095
#        114300
#        128460
#        141933
#        153333
#        161958
#        175108
#        190570
#        203683
#        217108
#        230308
#        244033
#        256870
#        269308
#        285633
#        296983
#        309508
#
# Disc length: 4307 seconds
#
# Revision: 0
# Processed by: cddbd v1.4PL0 Copyright (c) Steve Scherf et al.
# Submitted via: ExactAudioCopy v0.90b4
#
DISCID=6b10d119
DTITLE=B.B. King - The Story (25 Phonographic Memories)
DYEAR=1900
DGENRE=Blues
TTITLE0=Mistreatred Woman
TTITLE1=My Own Fault
TTITLE2=Sweet Little Angel
TTITLE3=Beautician Blues
TTITLE4=Troubles Troubles Troubles
TTITLE5=Treat Me Right
TTITLE6=B.B.'s Boogie
TTITLE7=Please Love Me
TTITLE8=Sneakin' Around
TTITLE9=The Jungle
TTITLE10=You Upset Me Baby
TTITLE11=Shake It Up And Go
TTITLE12=A New Way Of Driving
TTITLE13=Woke Up This Morning
TTITLE14=Five Long Years
TTITLE15=Blind Love
TTITLE16=Let Me Love You
TTITLE17=Crying Won't Help You
TTITLE18=You Know I Love You
TTITLE19=Bad Luck
TTITLE20=Everyday I Have The Blues
TTITLE21=The Other Night Blues
TTITLE22=Did You Ever Love A Woman
TTITLE23=Rock Me Baby
TTITLE24=The Woman I Love
EXTD=
EXTT0=
EXTT1=
EXTT2=
EXTT3=
EXTT4=
EXTT5=
EXTT6=
EXTT7=
EXTT8=
EXTT9=
EXTT10=
EXTT11=
EXTT12=
EXTT13=
EXTT14=
EXTT15=
EXTT16=
EXTT17=
EXTT18=
EXTT19=
EXTT20=
EXTT21=
EXTT22=
EXTT23=
EXTT24=
PLAYORDER=
